<mxfile host="app.diagrams.net" modified="2023-07-24T08:17:09.113Z" agent="Mozilla/5.0 (Macintosh; Intel Mac OS X 10_15_7) AppleWebKit/537.36 (KHTML, like Gecko) Chrome/114.0.0.0 Safari/537.36" etag="sHdbP5r6s1NmtVLVAGLE" version="21.6.5" type="device">
  <diagram name="Pagina-1" id="E86e4NDSDupO1HPsmGOW">
    <mxGraphModel dx="1060" dy="692" grid="1" gridSize="10" guides="1" tooltips="1" connect="1" arrows="1" fold="1" page="1" pageScale="1" pageWidth="1169" pageHeight="827" math="0" shadow="0">
      <root>
        <mxCell id="0" />
        <mxCell id="1" parent="0" />
        <mxCell id="p8wJOIbWvvfeco1BrMOa-17" style="edgeStyle=orthogonalEdgeStyle;rounded=0;orthogonalLoop=1;jettySize=auto;html=1;exitX=0;exitY=1;exitDx=0;exitDy=0;entryX=0;entryY=0.5;entryDx=0;entryDy=0;" edge="1" parent="1" source="p8wJOIbWvvfeco1BrMOa-1" target="p8wJOIbWvvfeco1BrMOa-15">
          <mxGeometry relative="1" as="geometry" />
        </mxCell>
        <mxCell id="p8wJOIbWvvfeco1BrMOa-19" style="edgeStyle=orthogonalEdgeStyle;rounded=0;orthogonalLoop=1;jettySize=auto;html=1;exitX=0;exitY=1;exitDx=0;exitDy=0;entryX=0;entryY=0.5;entryDx=0;entryDy=0;" edge="1" parent="1" source="p8wJOIbWvvfeco1BrMOa-1" target="p8wJOIbWvvfeco1BrMOa-18">
          <mxGeometry relative="1" as="geometry" />
        </mxCell>
        <mxCell id="p8wJOIbWvvfeco1BrMOa-21" style="edgeStyle=orthogonalEdgeStyle;rounded=0;orthogonalLoop=1;jettySize=auto;html=1;exitX=0;exitY=1;exitDx=0;exitDy=0;entryX=0;entryY=0.5;entryDx=0;entryDy=0;" edge="1" parent="1" source="p8wJOIbWvvfeco1BrMOa-1" target="p8wJOIbWvvfeco1BrMOa-20">
          <mxGeometry relative="1" as="geometry" />
        </mxCell>
        <mxCell id="p8wJOIbWvvfeco1BrMOa-1" value="Index Piscina" style="rounded=0;whiteSpace=wrap;html=1;" vertex="1" parent="1">
          <mxGeometry x="40" y="200" width="120" height="60" as="geometry" />
        </mxCell>
        <mxCell id="p8wJOIbWvvfeco1BrMOa-8" style="edgeStyle=orthogonalEdgeStyle;rounded=0;orthogonalLoop=1;jettySize=auto;html=1;exitX=0;exitY=1;exitDx=0;exitDy=0;entryX=0.5;entryY=0;entryDx=0;entryDy=0;" edge="1" parent="1" source="p8wJOIbWvvfeco1BrMOa-2" target="p8wJOIbWvvfeco1BrMOa-1">
          <mxGeometry relative="1" as="geometry">
            <Array as="points">
              <mxPoint x="480" y="130" />
              <mxPoint x="480" y="165" />
              <mxPoint x="100" y="165" />
            </Array>
          </mxGeometry>
        </mxCell>
        <mxCell id="p8wJOIbWvvfeco1BrMOa-9" style="edgeStyle=orthogonalEdgeStyle;rounded=0;orthogonalLoop=1;jettySize=auto;html=1;exitX=0.25;exitY=1;exitDx=0;exitDy=0;entryX=0.5;entryY=0;entryDx=0;entryDy=0;" edge="1" parent="1" source="p8wJOIbWvvfeco1BrMOa-2" target="p8wJOIbWvvfeco1BrMOa-3">
          <mxGeometry relative="1" as="geometry">
            <Array as="points">
              <mxPoint x="510" y="130" />
              <mxPoint x="510" y="165" />
              <mxPoint x="270" y="165" />
            </Array>
          </mxGeometry>
        </mxCell>
        <mxCell id="p8wJOIbWvvfeco1BrMOa-10" style="edgeStyle=orthogonalEdgeStyle;rounded=0;orthogonalLoop=1;jettySize=auto;html=1;exitX=0.5;exitY=1;exitDx=0;exitDy=0;entryX=0.5;entryY=0;entryDx=0;entryDy=0;" edge="1" parent="1" source="p8wJOIbWvvfeco1BrMOa-2" target="p8wJOIbWvvfeco1BrMOa-4">
          <mxGeometry relative="1" as="geometry" />
        </mxCell>
        <mxCell id="p8wJOIbWvvfeco1BrMOa-11" style="edgeStyle=orthogonalEdgeStyle;rounded=0;orthogonalLoop=1;jettySize=auto;html=1;exitX=0.5;exitY=1;exitDx=0;exitDy=0;entryX=0.5;entryY=0;entryDx=0;entryDy=0;" edge="1" parent="1" source="p8wJOIbWvvfeco1BrMOa-2" target="p8wJOIbWvvfeco1BrMOa-5">
          <mxGeometry relative="1" as="geometry" />
        </mxCell>
        <mxCell id="p8wJOIbWvvfeco1BrMOa-12" style="edgeStyle=orthogonalEdgeStyle;rounded=0;orthogonalLoop=1;jettySize=auto;html=1;exitX=0.75;exitY=1;exitDx=0;exitDy=0;" edge="1" parent="1" source="p8wJOIbWvvfeco1BrMOa-2" target="p8wJOIbWvvfeco1BrMOa-6">
          <mxGeometry relative="1" as="geometry">
            <Array as="points">
              <mxPoint x="550" y="130" />
              <mxPoint x="550" y="165" />
              <mxPoint x="780" y="165" />
            </Array>
          </mxGeometry>
        </mxCell>
        <mxCell id="p8wJOIbWvvfeco1BrMOa-13" style="edgeStyle=orthogonalEdgeStyle;rounded=0;orthogonalLoop=1;jettySize=auto;html=1;exitX=1;exitY=1;exitDx=0;exitDy=0;entryX=0.5;entryY=0;entryDx=0;entryDy=0;" edge="1" parent="1" source="p8wJOIbWvvfeco1BrMOa-2" target="p8wJOIbWvvfeco1BrMOa-7">
          <mxGeometry relative="1" as="geometry">
            <Array as="points">
              <mxPoint x="580" y="130" />
              <mxPoint x="580" y="165" />
              <mxPoint x="950" y="165" />
            </Array>
          </mxGeometry>
        </mxCell>
        <mxCell id="p8wJOIbWvvfeco1BrMOa-2" value="NAVBAR" style="rounded=0;whiteSpace=wrap;html=1;" vertex="1" parent="1">
          <mxGeometry x="470" y="70" width="120" height="60" as="geometry" />
        </mxCell>
        <mxCell id="p8wJOIbWvvfeco1BrMOa-3" value="Index Vasca" style="rounded=0;whiteSpace=wrap;html=1;" vertex="1" parent="1">
          <mxGeometry x="210" y="200" width="120" height="60" as="geometry" />
        </mxCell>
        <mxCell id="p8wJOIbWvvfeco1BrMOa-4" value="Index&lt;br&gt;Corsi di nuoto" style="rounded=0;whiteSpace=wrap;html=1;" vertex="1" parent="1">
          <mxGeometry x="380" y="200" width="120" height="60" as="geometry" />
        </mxCell>
        <mxCell id="p8wJOIbWvvfeco1BrMOa-5" value="Personale" style="rounded=0;whiteSpace=wrap;html=1;" vertex="1" parent="1">
          <mxGeometry x="550" y="200" width="120" height="60" as="geometry" />
        </mxCell>
        <mxCell id="p8wJOIbWvvfeco1BrMOa-6" value="Iscritti" style="rounded=0;whiteSpace=wrap;html=1;" vertex="1" parent="1">
          <mxGeometry x="720" y="200" width="120" height="60" as="geometry" />
        </mxCell>
        <mxCell id="p8wJOIbWvvfeco1BrMOa-7" value="Supplenze" style="rounded=0;whiteSpace=wrap;html=1;" vertex="1" parent="1">
          <mxGeometry x="890" y="200" width="120" height="60" as="geometry" />
        </mxCell>
        <mxCell id="p8wJOIbWvvfeco1BrMOa-15" value="Inserimento&amp;nbsp;&lt;br&gt;piscina" style="rounded=0;whiteSpace=wrap;html=1;" vertex="1" parent="1">
          <mxGeometry x="60" y="310" width="80" height="40" as="geometry" />
        </mxCell>
        <mxCell id="p8wJOIbWvvfeco1BrMOa-18" value="Modifica&lt;br&gt;piscina" style="rounded=0;whiteSpace=wrap;html=1;" vertex="1" parent="1">
          <mxGeometry x="60" y="374" width="80" height="40" as="geometry" />
        </mxCell>
        <mxCell id="p8wJOIbWvvfeco1BrMOa-20" value="Elimina&lt;br&gt;Piscina" style="rounded=0;whiteSpace=wrap;html=1;" vertex="1" parent="1">
          <mxGeometry x="60" y="440" width="80" height="40" as="geometry" />
        </mxCell>
        <mxCell id="p8wJOIbWvvfeco1BrMOa-22" style="edgeStyle=orthogonalEdgeStyle;rounded=0;orthogonalLoop=1;jettySize=auto;html=1;exitX=0;exitY=1;exitDx=0;exitDy=0;entryX=0;entryY=0.5;entryDx=0;entryDy=0;" edge="1" parent="1" target="p8wJOIbWvvfeco1BrMOa-25">
          <mxGeometry relative="1" as="geometry">
            <mxPoint x="210" y="260" as="sourcePoint" />
            <Array as="points">
              <mxPoint x="210" y="330" />
            </Array>
          </mxGeometry>
        </mxCell>
        <mxCell id="p8wJOIbWvvfeco1BrMOa-23" style="edgeStyle=orthogonalEdgeStyle;rounded=0;orthogonalLoop=1;jettySize=auto;html=1;exitX=0;exitY=1;exitDx=0;exitDy=0;entryX=0;entryY=0.5;entryDx=0;entryDy=0;" edge="1" parent="1" target="p8wJOIbWvvfeco1BrMOa-26">
          <mxGeometry relative="1" as="geometry">
            <mxPoint x="210" y="260" as="sourcePoint" />
            <Array as="points">
              <mxPoint x="210" y="394" />
            </Array>
          </mxGeometry>
        </mxCell>
        <mxCell id="p8wJOIbWvvfeco1BrMOa-25" value="Inserimento&amp;nbsp;&lt;br&gt;vasca" style="rounded=0;whiteSpace=wrap;html=1;" vertex="1" parent="1">
          <mxGeometry x="230" y="310" width="80" height="40" as="geometry" />
        </mxCell>
        <mxCell id="p8wJOIbWvvfeco1BrMOa-26" value="Modifica&lt;br&gt;vasca" style="rounded=0;whiteSpace=wrap;html=1;" vertex="1" parent="1">
          <mxGeometry x="230" y="374" width="80" height="40" as="geometry" />
        </mxCell>
        <mxCell id="p8wJOIbWvvfeco1BrMOa-37" style="edgeStyle=orthogonalEdgeStyle;rounded=0;orthogonalLoop=1;jettySize=auto;html=1;exitX=0;exitY=1;exitDx=0;exitDy=0;entryX=0;entryY=0.5;entryDx=0;entryDy=0;" edge="1" parent="1" target="p8wJOIbWvvfeco1BrMOa-40">
          <mxGeometry relative="1" as="geometry">
            <mxPoint x="380" y="260" as="sourcePoint" />
            <Array as="points">
              <mxPoint x="380" y="330" />
            </Array>
          </mxGeometry>
        </mxCell>
        <mxCell id="p8wJOIbWvvfeco1BrMOa-38" style="edgeStyle=orthogonalEdgeStyle;rounded=0;orthogonalLoop=1;jettySize=auto;html=1;exitX=0;exitY=1;exitDx=0;exitDy=0;entryX=0;entryY=0.5;entryDx=0;entryDy=0;" edge="1" parent="1" target="p8wJOIbWvvfeco1BrMOa-41">
          <mxGeometry relative="1" as="geometry">
            <mxPoint x="380" y="260" as="sourcePoint" />
            <Array as="points">
              <mxPoint x="380" y="394" />
            </Array>
          </mxGeometry>
        </mxCell>
        <mxCell id="p8wJOIbWvvfeco1BrMOa-39" style="edgeStyle=orthogonalEdgeStyle;rounded=0;orthogonalLoop=1;jettySize=auto;html=1;exitX=0;exitY=1;exitDx=0;exitDy=0;entryX=0;entryY=0.5;entryDx=0;entryDy=0;" edge="1" parent="1" target="p8wJOIbWvvfeco1BrMOa-42">
          <mxGeometry relative="1" as="geometry">
            <mxPoint x="380" y="260" as="sourcePoint" />
            <Array as="points">
              <mxPoint x="380" y="460" />
            </Array>
          </mxGeometry>
        </mxCell>
        <mxCell id="p8wJOIbWvvfeco1BrMOa-40" value="Inserimento tipologia di corso" style="rounded=0;whiteSpace=wrap;html=1;" vertex="1" parent="1">
          <mxGeometry x="400" y="310" width="80" height="40" as="geometry" />
        </mxCell>
        <mxCell id="p8wJOIbWvvfeco1BrMOa-41" value="Inserimento&lt;br&gt;corso di nuoto" style="rounded=0;whiteSpace=wrap;html=1;" vertex="1" parent="1">
          <mxGeometry x="400" y="374" width="80" height="40" as="geometry" />
        </mxCell>
        <mxCell id="p8wJOIbWvvfeco1BrMOa-42" value="Modifica corso" style="rounded=0;whiteSpace=wrap;html=1;" vertex="1" parent="1">
          <mxGeometry x="400" y="440" width="80" height="40" as="geometry" />
        </mxCell>
        <mxCell id="p8wJOIbWvvfeco1BrMOa-43" style="edgeStyle=orthogonalEdgeStyle;rounded=0;orthogonalLoop=1;jettySize=auto;html=1;exitX=0;exitY=1;exitDx=0;exitDy=0;entryX=0;entryY=0.5;entryDx=0;entryDy=0;" edge="1" parent="1" target="p8wJOIbWvvfeco1BrMOa-46">
          <mxGeometry relative="1" as="geometry">
            <mxPoint x="550" y="260" as="sourcePoint" />
            <Array as="points">
              <mxPoint x="550" y="330" />
            </Array>
          </mxGeometry>
        </mxCell>
        <mxCell id="p8wJOIbWvvfeco1BrMOa-44" style="edgeStyle=orthogonalEdgeStyle;rounded=0;orthogonalLoop=1;jettySize=auto;html=1;exitX=0;exitY=1;exitDx=0;exitDy=0;entryX=0;entryY=0.5;entryDx=0;entryDy=0;" edge="1" parent="1" target="p8wJOIbWvvfeco1BrMOa-47">
          <mxGeometry relative="1" as="geometry">
            <mxPoint x="550" y="324" as="sourcePoint" />
            <Array as="points">
              <mxPoint x="550" y="458" />
            </Array>
          </mxGeometry>
        </mxCell>
        <mxCell id="p8wJOIbWvvfeco1BrMOa-45" style="edgeStyle=orthogonalEdgeStyle;rounded=0;orthogonalLoop=1;jettySize=auto;html=1;entryX=0;entryY=0.5;entryDx=0;entryDy=0;" edge="1" parent="1" target="p8wJOIbWvvfeco1BrMOa-48">
          <mxGeometry relative="1" as="geometry">
            <mxPoint x="550" y="210" as="sourcePoint" />
            <Array as="points">
              <mxPoint x="550" y="524" />
            </Array>
          </mxGeometry>
        </mxCell>
        <mxCell id="p8wJOIbWvvfeco1BrMOa-46" value="&lt;font style=&quot;font-size: 7px;&quot;&gt;Seleziona piscina + anno&lt;/font&gt;" style="rounded=0;whiteSpace=wrap;html=1;" vertex="1" parent="1">
          <mxGeometry x="570" y="310" width="80" height="40" as="geometry" />
        </mxCell>
        <mxCell id="p8wJOIbWvvfeco1BrMOa-47" value="Inserimento personale" style="rounded=0;whiteSpace=wrap;html=1;" vertex="1" parent="1">
          <mxGeometry x="570" y="438" width="80" height="40" as="geometry" />
        </mxCell>
        <mxCell id="p8wJOIbWvvfeco1BrMOa-48" value="Inserimento qualifica" style="rounded=0;whiteSpace=wrap;html=1;" vertex="1" parent="1">
          <mxGeometry x="570" y="504" width="80" height="40" as="geometry" />
        </mxCell>
        <mxCell id="p8wJOIbWvvfeco1BrMOa-51" value="&lt;font style=&quot;font-size: 9px;&quot;&gt;Visualizza responsabile&lt;/font&gt;" style="text;html=1;strokeColor=none;fillColor=none;align=center;verticalAlign=middle;whiteSpace=wrap;rounded=0;" vertex="1" parent="1">
          <mxGeometry x="590" y="350" width="60" height="30" as="geometry" />
        </mxCell>
        <mxCell id="p8wJOIbWvvfeco1BrMOa-52" value="&lt;font style=&quot;font-size: 9px;&quot;&gt;Visualizza personale&lt;/font&gt;" style="text;html=1;strokeColor=none;fillColor=none;align=center;verticalAlign=middle;whiteSpace=wrap;rounded=0;" vertex="1" parent="1">
          <mxGeometry x="590" y="384" width="60" height="30" as="geometry" />
        </mxCell>
        <mxCell id="p8wJOIbWvvfeco1BrMOa-56" value="" style="endArrow=none;html=1;rounded=0;entryX=0;entryY=1;entryDx=0;entryDy=0;exitX=0;exitY=0.5;exitDx=0;exitDy=0;endFill=0;startArrow=classic;startFill=1;" edge="1" parent="1" source="p8wJOIbWvvfeco1BrMOa-51" target="p8wJOIbWvvfeco1BrMOa-46">
          <mxGeometry width="50" height="50" relative="1" as="geometry">
            <mxPoint x="580" y="420" as="sourcePoint" />
            <mxPoint x="630" y="370" as="targetPoint" />
            <Array as="points">
              <mxPoint x="570" y="365" />
            </Array>
          </mxGeometry>
        </mxCell>
        <mxCell id="p8wJOIbWvvfeco1BrMOa-57" value="" style="endArrow=none;html=1;rounded=0;exitX=0;exitY=0.5;exitDx=0;exitDy=0;endFill=0;startArrow=classic;startFill=1;" edge="1" parent="1">
          <mxGeometry width="50" height="50" relative="1" as="geometry">
            <mxPoint x="590" y="401.5" as="sourcePoint" />
            <mxPoint x="570" y="350" as="targetPoint" />
            <Array as="points">
              <mxPoint x="570" y="401.5" />
            </Array>
          </mxGeometry>
        </mxCell>
        <mxCell id="p8wJOIbWvvfeco1BrMOa-58" style="edgeStyle=orthogonalEdgeStyle;rounded=0;orthogonalLoop=1;jettySize=auto;html=1;exitX=0;exitY=1;exitDx=0;exitDy=0;entryX=0;entryY=0.5;entryDx=0;entryDy=0;" edge="1" parent="1" target="p8wJOIbWvvfeco1BrMOa-59">
          <mxGeometry relative="1" as="geometry">
            <mxPoint x="720" y="260" as="sourcePoint" />
            <Array as="points">
              <mxPoint x="720" y="330" />
            </Array>
          </mxGeometry>
        </mxCell>
        <mxCell id="p8wJOIbWvvfeco1BrMOa-59" value="Inserimento nuovo iscritto" style="rounded=0;whiteSpace=wrap;html=1;" vertex="1" parent="1">
          <mxGeometry x="740" y="310" width="80" height="40" as="geometry" />
        </mxCell>
        <mxCell id="p8wJOIbWvvfeco1BrMOa-61" style="edgeStyle=orthogonalEdgeStyle;rounded=0;orthogonalLoop=1;jettySize=auto;html=1;exitX=0;exitY=1;exitDx=0;exitDy=0;entryX=0;entryY=0.5;entryDx=0;entryDy=0;" edge="1" parent="1">
          <mxGeometry relative="1" as="geometry">
            <mxPoint x="720" y="270" as="sourcePoint" />
            <Array as="points">
              <mxPoint x="720" y="404" />
            </Array>
            <mxPoint x="740" y="404" as="targetPoint" />
          </mxGeometry>
        </mxCell>
        <mxCell id="p8wJOIbWvvfeco1BrMOa-65" value="Storico" style="rounded=0;whiteSpace=wrap;html=1;" vertex="1" parent="1">
          <mxGeometry x="740" y="385" width="80" height="40" as="geometry" />
        </mxCell>
        <mxCell id="p8wJOIbWvvfeco1BrMOa-66" style="edgeStyle=orthogonalEdgeStyle;rounded=0;orthogonalLoop=1;jettySize=auto;html=1;entryX=0;entryY=0.5;entryDx=0;entryDy=0;" edge="1" parent="1" target="p8wJOIbWvvfeco1BrMOa-67">
          <mxGeometry relative="1" as="geometry">
            <mxPoint x="720" y="260" as="sourcePoint" />
            <Array as="points">
              <mxPoint x="720" y="477" />
            </Array>
          </mxGeometry>
        </mxCell>
        <mxCell id="p8wJOIbWvvfeco1BrMOa-67" value="Qualifche" style="rounded=0;whiteSpace=wrap;html=1;" vertex="1" parent="1">
          <mxGeometry x="740" y="457" width="80" height="40" as="geometry" />
        </mxCell>
        <mxCell id="p8wJOIbWvvfeco1BrMOa-71" style="edgeStyle=orthogonalEdgeStyle;rounded=0;orthogonalLoop=1;jettySize=auto;html=1;exitX=0;exitY=1;exitDx=0;exitDy=0;entryX=0;entryY=0.5;entryDx=0;entryDy=0;" edge="1" parent="1" target="p8wJOIbWvvfeco1BrMOa-72">
          <mxGeometry relative="1" as="geometry">
            <mxPoint x="890" y="260" as="sourcePoint" />
            <Array as="points">
              <mxPoint x="890" y="330" />
            </Array>
          </mxGeometry>
        </mxCell>
        <mxCell id="p8wJOIbWvvfeco1BrMOa-72" value="Seleziona" style="rounded=0;whiteSpace=wrap;html=1;" vertex="1" parent="1">
          <mxGeometry x="910" y="310" width="80" height="40" as="geometry" />
        </mxCell>
        <mxCell id="p8wJOIbWvvfeco1BrMOa-73" value="&lt;font style=&quot;font-size: 6px;&quot;&gt;Visualizza&lt;br&gt;elenco istruttori con supplenze&lt;br&gt;&lt;/font&gt;" style="text;html=1;strokeColor=none;fillColor=none;align=center;verticalAlign=middle;whiteSpace=wrap;rounded=0;" vertex="1" parent="1">
          <mxGeometry x="930" y="360" width="60" height="30" as="geometry" />
        </mxCell>
        <mxCell id="p8wJOIbWvvfeco1BrMOa-74" value="" style="endArrow=none;html=1;rounded=0;entryX=0;entryY=1;entryDx=0;entryDy=0;exitX=0;exitY=0.5;exitDx=0;exitDy=0;endFill=0;startArrow=classic;startFill=1;" edge="1" parent="1" source="p8wJOIbWvvfeco1BrMOa-73">
          <mxGeometry width="50" height="50" relative="1" as="geometry">
            <mxPoint x="920" y="420" as="sourcePoint" />
            <mxPoint x="910" y="350" as="targetPoint" />
            <Array as="points">
              <mxPoint x="910" y="375" />
            </Array>
          </mxGeometry>
        </mxCell>
      </root>
    </mxGraphModel>
  </diagram>
</mxfile>
